<svg width="683" height="683" viewBox="0 0 683 683" fill="none" xmlns="http://www.w3.org/2000/svg">
<g clip-path="url(#clip0_4_142)">
<path d="M398.22 369.781C351.173 369.781 312.887 331.495 312.887 284.449C312.887 237.402 351.173 199.116 398.22 199.116H455.105V85.3412C455.105 38.2948 416.819 0.00878906 369.772 0.00878906H63.9994C54.6401 0.00878906 45.8798 4.61291 40.5621 12.3212C35.2705 20.0294 34.0778 29.847 37.4319 38.5761L243.654 579.018C247.836 590.055 258.414 597.336 270.221 597.336H369.772C416.819 597.336 455.105 559.05 455.105 512.003V369.781H398.22Z" fill="#D93333"/>
<path d="M529.547 424.51C518.937 420.098 511.995 409.718 511.995 398.223V312.891H398.22C382.517 312.891 369.772 300.151 369.772 284.449C369.772 268.746 382.517 256.006 398.22 256.006H511.995V170.674C511.995 159.179 518.937 148.799 529.547 144.388C540.182 139.981 552.416 142.429 560.546 150.565L674.326 264.339C685.446 275.459 685.446 293.438 674.326 304.558L560.546 418.338C552.416 426.468 540.182 428.916 529.547 424.51Z" fill="#626262"/>
<path d="M245.93 59.7946L75.0096 2.82123C36.4371 -9.03802 0 19.4356 0 56.8936V568.888C0 593.211 15.4738 614.914 38.5152 622.877L209.404 679.851C215.69 681.783 221.466 682.668 227.555 682.668C258.93 682.668 284.44 657.153 284.44 625.778V113.784C284.44 89.4662 268.966 67.7633 245.93 59.7946Z" fill="#FF7B6C"/>
</g>
<defs>
<clipPath id="clip0_4_142">
<rect width="682.667" height="682.667" fill="white"/>
</clipPath>
</defs>
</svg>
